<mxfile host="www.draw.io" modified="2019-11-27T14:22:56.395Z" agent="Mozilla/5.0 (Windows NT 10.0; Win64; x64) AppleWebKit/537.36 (KHTML, like Gecko) Chrome/74.0.3729.131 Safari/537.36" etag="487OhtNBd1djAtNIpfGI" version="12.3.2" type="github" pages="1">
  <diagram id="Yr6U0pGL9p3vCSCSJH84" name="第 1 页">
    <mxGraphModel dx="1173" dy="632" grid="0" gridSize="10" guides="1" tooltips="1" connect="1" arrows="1" fold="1" page="1" pageScale="1" pageWidth="4681" pageHeight="3300" math="0" shadow="0">
      <root>
        <mxCell id="0"/>
        <mxCell id="1" parent="0"/>
        <mxCell id="H_HTBfzigYBNuSM5Y4cz-40" style="edgeStyle=orthogonalEdgeStyle;rounded=0;orthogonalLoop=1;jettySize=auto;html=1;entryX=0.5;entryY=0;entryDx=0;entryDy=0;fontSize=12;dashed=1;" parent="1" source="H_HTBfzigYBNuSM5Y4cz-1" target="H_HTBfzigYBNuSM5Y4cz-38" edge="1">
          <mxGeometry relative="1" as="geometry"/>
        </mxCell>
        <mxCell id="H_HTBfzigYBNuSM5Y4cz-1" value="页内偏移量W" style="rounded=0;whiteSpace=wrap;html=1;fillColor=#b0e3e6;strokeColor=#0e8088;" parent="1" vertex="1">
          <mxGeometry x="915" y="145" width="80" height="30" as="geometry"/>
        </mxCell>
        <mxCell id="H_HTBfzigYBNuSM5Y4cz-14" value="" style="edgeStyle=orthogonalEdgeStyle;rounded=0;orthogonalLoop=1;jettySize=auto;html=1;fontSize=16;entryX=1;entryY=0.5;entryDx=0;entryDy=0;exitX=0.5;exitY=1;exitDx=0;exitDy=0;" parent="1" source="H_HTBfzigYBNuSM5Y4cz-2" target="H_HTBfzigYBNuSM5Y4cz-5" edge="1">
          <mxGeometry relative="1" as="geometry">
            <mxPoint x="950" y="260" as="targetPoint"/>
          </mxGeometry>
        </mxCell>
        <mxCell id="H_HTBfzigYBNuSM5Y4cz-2" value="页号P" style="rounded=0;whiteSpace=wrap;html=1;fillColor=#b0e3e6;strokeColor=#0e8088;" parent="1" vertex="1">
          <mxGeometry x="765" y="145" width="150" height="30" as="geometry"/>
        </mxCell>
        <mxCell id="H_HTBfzigYBNuSM5Y4cz-3" value="逻辑地址A" style="text;html=1;strokeColor=none;fillColor=none;align=center;verticalAlign=middle;whiteSpace=wrap;rounded=0;" parent="1" vertex="1">
          <mxGeometry x="765" y="125" width="70" height="20" as="geometry"/>
        </mxCell>
        <mxCell id="H_HTBfzigYBNuSM5Y4cz-10" style="edgeStyle=orthogonalEdgeStyle;rounded=0;orthogonalLoop=1;jettySize=auto;html=1;fontSize=16;entryX=0.5;entryY=1;entryDx=0;entryDy=0;" parent="1" source="H_HTBfzigYBNuSM5Y4cz-5" target="H_HTBfzigYBNuSM5Y4cz-11" edge="1">
          <mxGeometry relative="1" as="geometry">
            <mxPoint x="583.5" y="110" as="targetPoint"/>
          </mxGeometry>
        </mxCell>
        <mxCell id="H_HTBfzigYBNuSM5Y4cz-15" style="edgeStyle=orthogonalEdgeStyle;rounded=0;orthogonalLoop=1;jettySize=auto;html=1;fontSize=16;entryX=1;entryY=0.5;entryDx=0;entryDy=0;exitX=0.5;exitY=1;exitDx=0;exitDy=0;" parent="1" source="H_HTBfzigYBNuSM5Y4cz-5" target="H_HTBfzigYBNuSM5Y4cz-16" edge="1">
          <mxGeometry relative="1" as="geometry">
            <mxPoint x="570" y="320" as="targetPoint"/>
          </mxGeometry>
        </mxCell>
        <mxCell id="H_HTBfzigYBNuSM5Y4cz-47" value="没有越界" style="text;html=1;resizable=0;points=[];align=center;verticalAlign=middle;labelBackgroundColor=#ffffff;fontSize=12;" parent="H_HTBfzigYBNuSM5Y4cz-15" vertex="1" connectable="0">
          <mxGeometry x="-0.12" y="1" relative="1" as="geometry">
            <mxPoint as="offset"/>
          </mxGeometry>
        </mxCell>
        <mxCell id="H_HTBfzigYBNuSM5Y4cz-5" value="&lt;span style=&quot;color: rgb(51 , 51 , 51) ; font-family: &amp;#34;arial&amp;#34; ; font-size: 16px ; background-color: rgb(255 , 217 , 102)&quot;&gt;≤&lt;/span&gt;" style="rhombus;whiteSpace=wrap;html=1;fontSize=16;gradientColor=none;fillColor=#FFD966;strokeColor=#d79b00;" parent="1" vertex="1">
          <mxGeometry x="528.5" y="185" width="110" height="40" as="geometry"/>
        </mxCell>
        <mxCell id="H_HTBfzigYBNuSM5Y4cz-9" style="edgeStyle=orthogonalEdgeStyle;rounded=0;orthogonalLoop=1;jettySize=auto;html=1;entryX=0;entryY=0.5;entryDx=0;entryDy=0;fontSize=16;" parent="1" source="H_HTBfzigYBNuSM5Y4cz-6" target="H_HTBfzigYBNuSM5Y4cz-5" edge="1">
          <mxGeometry relative="1" as="geometry"/>
        </mxCell>
        <mxCell id="H_HTBfzigYBNuSM5Y4cz-6" value="页表长度M" style="rounded=0;whiteSpace=wrap;html=1;fillColor=#b0e3e6;strokeColor=#0e8088;" parent="1" vertex="1">
          <mxGeometry x="340" y="190" width="90" height="30" as="geometry"/>
        </mxCell>
        <mxCell id="H_HTBfzigYBNuSM5Y4cz-17" style="edgeStyle=orthogonalEdgeStyle;rounded=0;orthogonalLoop=1;jettySize=auto;html=1;exitX=0.5;exitY=1;exitDx=0;exitDy=0;fontSize=16;" parent="1" source="H_HTBfzigYBNuSM5Y4cz-7" target="H_HTBfzigYBNuSM5Y4cz-16" edge="1">
          <mxGeometry relative="1" as="geometry"/>
        </mxCell>
        <mxCell id="H_HTBfzigYBNuSM5Y4cz-7" value="页表起始地址F" style="rounded=0;whiteSpace=wrap;html=1;fillColor=#b0e3e6;strokeColor=#0e8088;" parent="1" vertex="1">
          <mxGeometry x="210" y="190" width="130" height="30" as="geometry"/>
        </mxCell>
        <mxCell id="H_HTBfzigYBNuSM5Y4cz-8" value="页表寄存器" style="text;html=1;strokeColor=none;fillColor=none;align=center;verticalAlign=middle;whiteSpace=wrap;rounded=0;" parent="1" vertex="1">
          <mxGeometry x="240" y="165" width="70" height="20" as="geometry"/>
        </mxCell>
        <mxCell id="H_HTBfzigYBNuSM5Y4cz-11" value="越界中断（内中断）" style="rounded=1;whiteSpace=wrap;html=1;fontSize=12;gradientColor=none;fillColor=#f8cecc;strokeColor=#b85450;" parent="1" vertex="1">
          <mxGeometry x="505" y="90" width="157" height="30" as="geometry"/>
        </mxCell>
        <mxCell id="H_HTBfzigYBNuSM5Y4cz-18" style="edgeStyle=orthogonalEdgeStyle;rounded=0;orthogonalLoop=1;jettySize=auto;html=1;exitX=0.5;exitY=1;exitDx=0;exitDy=0;fontSize=16;entryX=0;entryY=0.5;entryDx=0;entryDy=0;" parent="1" source="H_HTBfzigYBNuSM5Y4cz-16" target="H_HTBfzigYBNuSM5Y4cz-25" edge="1">
          <mxGeometry relative="1" as="geometry">
            <mxPoint x="410" y="470" as="targetPoint"/>
          </mxGeometry>
        </mxCell>
        <mxCell id="H_HTBfzigYBNuSM5Y4cz-16" value="+" style="ellipse;whiteSpace=wrap;html=1;aspect=fixed;fontSize=16;gradientColor=#d5739d;fillColor=#e6d0de;strokeColor=#996185;" parent="1" vertex="1">
          <mxGeometry x="250" y="260" width="50" height="50" as="geometry"/>
        </mxCell>
        <mxCell id="H_HTBfzigYBNuSM5Y4cz-19" value="内存块号" style="rounded=0;whiteSpace=wrap;html=1;fontSize=16;fillColor=#ffcc99;strokeColor=#36393d;" parent="1" vertex="1">
          <mxGeometry x="460" y="360" width="90" height="30" as="geometry"/>
        </mxCell>
        <mxCell id="H_HTBfzigYBNuSM5Y4cz-20" value="&lt;b&gt;...&lt;/b&gt;" style="rounded=0;whiteSpace=wrap;html=1;fontSize=16;" parent="1" vertex="1">
          <mxGeometry x="460" y="390" width="90" height="30" as="geometry"/>
        </mxCell>
        <mxCell id="H_HTBfzigYBNuSM5Y4cz-21" value="&lt;b&gt;...&lt;/b&gt;" style="rounded=0;whiteSpace=wrap;html=1;fontSize=16;" parent="1" vertex="1">
          <mxGeometry x="460" y="420" width="90" height="30" as="geometry"/>
        </mxCell>
        <mxCell id="H_HTBfzigYBNuSM5Y4cz-36" style="edgeStyle=orthogonalEdgeStyle;rounded=0;orthogonalLoop=1;jettySize=auto;html=1;fontSize=12;entryX=0;entryY=0.5;entryDx=0;entryDy=0;" parent="1" source="H_HTBfzigYBNuSM5Y4cz-22" target="H_HTBfzigYBNuSM5Y4cz-39" edge="1">
          <mxGeometry relative="1" as="geometry">
            <mxPoint x="730" y="379.9999999999999" as="targetPoint"/>
          </mxGeometry>
        </mxCell>
        <mxCell id="H_HTBfzigYBNuSM5Y4cz-22" value="&lt;b&gt;b&lt;/b&gt;" style="rounded=0;whiteSpace=wrap;html=1;fontSize=16;fillColor=#ffe6cc;strokeColor=#d79b00;" parent="1" vertex="1">
          <mxGeometry x="460" y="450" width="90" height="30" as="geometry"/>
        </mxCell>
        <mxCell id="H_HTBfzigYBNuSM5Y4cz-23" value="&lt;b&gt;...&lt;/b&gt;" style="rounded=0;whiteSpace=wrap;html=1;fontSize=16;" parent="1" vertex="1">
          <mxGeometry x="460" y="480" width="90" height="30" as="geometry"/>
        </mxCell>
        <mxCell id="H_HTBfzigYBNuSM5Y4cz-24" value="&lt;b&gt;...&lt;/b&gt;" style="rounded=0;whiteSpace=wrap;html=1;fontSize=16;" parent="1" vertex="1">
          <mxGeometry x="460" y="510" width="90" height="30" as="geometry"/>
        </mxCell>
        <mxCell id="H_HTBfzigYBNuSM5Y4cz-25" value="P" style="text;html=1;strokeColor=none;fillColor=none;align=center;verticalAlign=middle;whiteSpace=wrap;rounded=0;fontSize=16;" parent="1" vertex="1">
          <mxGeometry x="410" y="455" width="40" height="20" as="geometry"/>
        </mxCell>
        <mxCell id="H_HTBfzigYBNuSM5Y4cz-26" value="&lt;b&gt;...&lt;/b&gt;" style="text;html=1;fontSize=16;" parent="1" vertex="1">
          <mxGeometry x="425" y="420" width="25" height="30" as="geometry"/>
        </mxCell>
        <mxCell id="H_HTBfzigYBNuSM5Y4cz-27" value="&lt;b&gt;...&lt;/b&gt;" style="text;html=1;fontSize=16;" parent="1" vertex="1">
          <mxGeometry x="425" y="390" width="25" height="30" as="geometry"/>
        </mxCell>
        <mxCell id="H_HTBfzigYBNuSM5Y4cz-28" value="&lt;b&gt;...&lt;/b&gt;" style="text;html=1;fontSize=16;" parent="1" vertex="1">
          <mxGeometry x="425" y="510" width="25" height="30" as="geometry"/>
        </mxCell>
        <mxCell id="H_HTBfzigYBNuSM5Y4cz-29" value="&lt;b&gt;...&lt;/b&gt;" style="text;html=1;fontSize=16;" parent="1" vertex="1">
          <mxGeometry x="425" y="480" width="25" height="30" as="geometry"/>
        </mxCell>
        <mxCell id="H_HTBfzigYBNuSM5Y4cz-30" value="页号" style="text;html=1;strokeColor=none;fillColor=none;align=center;verticalAlign=middle;whiteSpace=wrap;rounded=0;fontSize=16;" parent="1" vertex="1">
          <mxGeometry x="410" y="365" width="40" height="20" as="geometry"/>
        </mxCell>
        <mxCell id="H_HTBfzigYBNuSM5Y4cz-31" value="页表" style="text;html=1;strokeColor=none;fillColor=none;align=center;verticalAlign=middle;whiteSpace=wrap;rounded=0;fontSize=16;" parent="1" vertex="1">
          <mxGeometry x="460" y="550" width="40" height="20" as="geometry"/>
        </mxCell>
        <mxCell id="H_HTBfzigYBNuSM5Y4cz-53" style="edgeStyle=orthogonalEdgeStyle;rounded=0;orthogonalLoop=1;jettySize=auto;html=1;entryX=0;entryY=0.5;entryDx=0;entryDy=0;dashed=1;fontSize=12;" parent="1" source="H_HTBfzigYBNuSM5Y4cz-38" target="H_HTBfzigYBNuSM5Y4cz-46" edge="1">
          <mxGeometry relative="1" as="geometry">
            <Array as="points">
              <mxPoint x="1012" y="380"/>
              <mxPoint x="1012" y="305"/>
            </Array>
          </mxGeometry>
        </mxCell>
        <mxCell id="H_HTBfzigYBNuSM5Y4cz-38" value="页内偏移量W" style="rounded=0;whiteSpace=wrap;html=1;fillColor=#b0e3e6;strokeColor=#0e8088;" parent="1" vertex="1">
          <mxGeometry x="915" y="365" width="80" height="30" as="geometry"/>
        </mxCell>
        <mxCell id="H_HTBfzigYBNuSM5Y4cz-39" value="&lt;b&gt;b&lt;/b&gt;" style="rounded=0;whiteSpace=wrap;html=1;fillColor=#b0e3e6;strokeColor=#0e8088;" parent="1" vertex="1">
          <mxGeometry x="765" y="365" width="150" height="30" as="geometry"/>
        </mxCell>
        <mxCell id="H_HTBfzigYBNuSM5Y4cz-41" value="系统区" style="rounded=0;whiteSpace=wrap;html=1;fontSize=12;fillColor=#f8cecc;strokeColor=#b85450;" parent="1" vertex="1">
          <mxGeometry x="1137.5" y="112.5" width="120" height="60" as="geometry"/>
        </mxCell>
        <mxCell id="H_HTBfzigYBNuSM5Y4cz-42" value="" style="rounded=0;whiteSpace=wrap;html=1;fontSize=12;fillColor=#dae8fc;strokeColor=#6c8ebf;" parent="1" vertex="1">
          <mxGeometry x="1137.5" y="172.5" width="120" height="265" as="geometry"/>
        </mxCell>
        <mxCell id="H_HTBfzigYBNuSM5Y4cz-43" value="内存" style="text;html=1;strokeColor=none;fillColor=none;align=center;verticalAlign=middle;whiteSpace=wrap;rounded=0;fontSize=12;" parent="1" vertex="1">
          <mxGeometry x="1177.5" y="437.5" width="40" height="20" as="geometry"/>
        </mxCell>
        <mxCell id="H_HTBfzigYBNuSM5Y4cz-44" value="页表" style="rounded=0;whiteSpace=wrap;html=1;fontSize=12;fillColor=#d5e8d4;strokeColor=#82b366;" parent="1" vertex="1">
          <mxGeometry x="1137.5" y="227.5" width="120" height="30" as="geometry"/>
        </mxCell>
        <mxCell id="H_HTBfzigYBNuSM5Y4cz-45" value="页表始址F" style="text;html=1;strokeColor=none;fillColor=none;align=center;verticalAlign=middle;whiteSpace=wrap;rounded=0;fontSize=12;fontStyle=1" parent="1" vertex="1">
          <mxGeometry x="1066" y="218" width="76" height="18" as="geometry"/>
        </mxCell>
        <mxCell id="H_HTBfzigYBNuSM5Y4cz-46" value="P号页面" style="rounded=0;whiteSpace=wrap;html=1;fontSize=12;fillColor=#d5e8d4;strokeColor=#82b366;" parent="1" vertex="1">
          <mxGeometry x="1137.5" y="290" width="120" height="30" as="geometry"/>
        </mxCell>
        <mxCell id="H_HTBfzigYBNuSM5Y4cz-48" value="1. 根据逻辑地址算出页号和页内偏移量" style="ellipse;shape=cloud;whiteSpace=wrap;html=1;fillColor=#33FFFF;gradientColor=none;fontSize=12;" parent="1" vertex="1">
          <mxGeometry x="739" y="69" width="317" height="61" as="geometry"/>
        </mxCell>
        <mxCell id="H_HTBfzigYBNuSM5Y4cz-49" value="2. 判断页号是否越界" style="ellipse;shape=cloud;whiteSpace=wrap;html=1;fillColor=#33FFFF;gradientColor=none;fontSize=12;" parent="1" vertex="1">
          <mxGeometry x="583.5" y="140" width="170" height="55" as="geometry"/>
        </mxCell>
        <mxCell id="H_HTBfzigYBNuSM5Y4cz-50" value="" style="ellipse;shape=cloud;whiteSpace=wrap;html=1;fillColor=#33FFFF;gradientColor=none;fontSize=12;" parent="1" vertex="1">
          <mxGeometry x="240.5" y="455" width="199" height="156" as="geometry"/>
        </mxCell>
        <mxCell id="H_HTBfzigYBNuSM5Y4cz-51" value="3. 查询页表，找到页号&lt;br&gt;对应的页表项，确定页面&lt;br&gt;存放的内存块号" style="text;html=1;fontSize=12;" parent="1" vertex="1">
          <mxGeometry x="281.5" y="510" width="129" height="67" as="geometry"/>
        </mxCell>
        <mxCell id="H_HTBfzigYBNuSM5Y4cz-52" value="4. 使用内存块号和页内偏移量得到物理地址" style="ellipse;shape=cloud;whiteSpace=wrap;html=1;fillColor=#33FFFF;gradientColor=none;fontSize=12;" parent="1" vertex="1">
          <mxGeometry x="662" y="402" width="367" height="63" as="geometry"/>
        </mxCell>
        <mxCell id="H_HTBfzigYBNuSM5Y4cz-55" value="5. 访问目标内存单元" style="text;html=1;fontSize=12;" parent="1" vertex="1">
          <mxGeometry x="1012.8333333333335" y="305.16666666666674" width="129" height="28" as="geometry"/>
        </mxCell>
        <mxCell id="H_HTBfzigYBNuSM5Y4cz-58" style="edgeStyle=orthogonalEdgeStyle;rounded=0;orthogonalLoop=1;jettySize=auto;html=1;entryX=0.5;entryY=0;entryDx=0;entryDy=0;fontSize=12;dashed=1;" parent="1" source="H_HTBfzigYBNuSM5Y4cz-59" target="H_HTBfzigYBNuSM5Y4cz-90" edge="1">
          <mxGeometry relative="1" as="geometry"/>
        </mxCell>
        <mxCell id="H_HTBfzigYBNuSM5Y4cz-59" value="页内偏移量W" style="rounded=0;whiteSpace=wrap;html=1;fillColor=#b0e3e6;strokeColor=#0e8088;" parent="1" vertex="1">
          <mxGeometry x="920.5" y="762" width="80" height="30" as="geometry"/>
        </mxCell>
        <mxCell id="H_HTBfzigYBNuSM5Y4cz-60" value="" style="edgeStyle=orthogonalEdgeStyle;rounded=0;orthogonalLoop=1;jettySize=auto;html=1;fontSize=16;entryX=1;entryY=0.5;entryDx=0;entryDy=0;exitX=0.5;exitY=1;exitDx=0;exitDy=0;" parent="1" source="H_HTBfzigYBNuSM5Y4cz-61" target="H_HTBfzigYBNuSM5Y4cz-66" edge="1">
          <mxGeometry relative="1" as="geometry">
            <mxPoint x="955.5" y="877" as="targetPoint"/>
          </mxGeometry>
        </mxCell>
        <mxCell id="H_HTBfzigYBNuSM5Y4cz-61" value="页号0" style="rounded=0;whiteSpace=wrap;html=1;fillColor=#b0e3e6;strokeColor=#0e8088;" parent="1" vertex="1">
          <mxGeometry x="770.5" y="762" width="150" height="30" as="geometry"/>
        </mxCell>
        <mxCell id="H_HTBfzigYBNuSM5Y4cz-62" value="逻辑地址A" style="text;html=1;strokeColor=none;fillColor=none;align=center;verticalAlign=middle;whiteSpace=wrap;rounded=0;" parent="1" vertex="1">
          <mxGeometry x="770.5" y="742" width="70" height="20" as="geometry"/>
        </mxCell>
        <mxCell id="H_HTBfzigYBNuSM5Y4cz-63" style="edgeStyle=orthogonalEdgeStyle;rounded=0;orthogonalLoop=1;jettySize=auto;html=1;fontSize=16;entryX=0.5;entryY=1;entryDx=0;entryDy=0;" parent="1" source="H_HTBfzigYBNuSM5Y4cz-66" target="H_HTBfzigYBNuSM5Y4cz-72" edge="1">
          <mxGeometry relative="1" as="geometry">
            <mxPoint x="589" y="727" as="targetPoint"/>
          </mxGeometry>
        </mxCell>
        <mxCell id="H_HTBfzigYBNuSM5Y4cz-64" style="edgeStyle=orthogonalEdgeStyle;rounded=0;orthogonalLoop=1;jettySize=auto;html=1;fontSize=16;entryX=1;entryY=0.5;entryDx=0;entryDy=0;exitX=0.5;exitY=1;exitDx=0;exitDy=0;" parent="1" source="H_HTBfzigYBNuSM5Y4cz-66" target="H_HTBfzigYBNuSM5Y4cz-106" edge="1">
          <mxGeometry relative="1" as="geometry">
            <mxPoint x="575.5" y="937" as="targetPoint"/>
          </mxGeometry>
        </mxCell>
        <mxCell id="H_HTBfzigYBNuSM5Y4cz-65" value="没有越界" style="text;html=1;resizable=0;points=[];align=center;verticalAlign=middle;labelBackgroundColor=#ffffff;fontSize=12;" parent="H_HTBfzigYBNuSM5Y4cz-64" vertex="1" connectable="0">
          <mxGeometry x="-0.12" y="1" relative="1" as="geometry">
            <mxPoint as="offset"/>
          </mxGeometry>
        </mxCell>
        <mxCell id="H_HTBfzigYBNuSM5Y4cz-66" value="&lt;span style=&quot;color: rgb(51 , 51 , 51) ; font-family: &amp;#34;arial&amp;#34; ; font-size: 16px ; background-color: rgb(255 , 217 , 102)&quot;&gt;≤&lt;/span&gt;" style="rhombus;whiteSpace=wrap;html=1;fontSize=16;gradientColor=none;fillColor=#FFD966;strokeColor=#d79b00;" parent="1" vertex="1">
          <mxGeometry x="534" y="802" width="110" height="40" as="geometry"/>
        </mxCell>
        <mxCell id="H_HTBfzigYBNuSM5Y4cz-67" style="edgeStyle=orthogonalEdgeStyle;rounded=0;orthogonalLoop=1;jettySize=auto;html=1;entryX=0;entryY=0.5;entryDx=0;entryDy=0;fontSize=16;" parent="1" source="H_HTBfzigYBNuSM5Y4cz-68" target="H_HTBfzigYBNuSM5Y4cz-66" edge="1">
          <mxGeometry relative="1" as="geometry"/>
        </mxCell>
        <mxCell id="H_HTBfzigYBNuSM5Y4cz-68" value="页表长度M" style="rounded=0;whiteSpace=wrap;html=1;fillColor=#b0e3e6;strokeColor=#0e8088;" parent="1" vertex="1">
          <mxGeometry x="274" y="807" width="90" height="30" as="geometry"/>
        </mxCell>
        <mxCell id="H_HTBfzigYBNuSM5Y4cz-69" style="edgeStyle=orthogonalEdgeStyle;rounded=0;orthogonalLoop=1;jettySize=auto;html=1;exitX=0.5;exitY=1;exitDx=0;exitDy=0;fontSize=16;" parent="1" source="H_HTBfzigYBNuSM5Y4cz-70" target="H_HTBfzigYBNuSM5Y4cz-74" edge="1">
          <mxGeometry relative="1" as="geometry"/>
        </mxCell>
        <mxCell id="H_HTBfzigYBNuSM5Y4cz-70" value="页表起始地址F" style="rounded=0;whiteSpace=wrap;html=1;fillColor=#b0e3e6;strokeColor=#0e8088;" parent="1" vertex="1">
          <mxGeometry x="144" y="807" width="130" height="30" as="geometry"/>
        </mxCell>
        <mxCell id="H_HTBfzigYBNuSM5Y4cz-71" value="页表寄存器" style="text;html=1;strokeColor=none;fillColor=none;align=center;verticalAlign=middle;whiteSpace=wrap;rounded=0;" parent="1" vertex="1">
          <mxGeometry x="174" y="782" width="70" height="20" as="geometry"/>
        </mxCell>
        <mxCell id="H_HTBfzigYBNuSM5Y4cz-72" value="越界中断（内中断）" style="rounded=1;whiteSpace=wrap;html=1;fontSize=12;gradientColor=none;fillColor=#f8cecc;strokeColor=#b85450;" parent="1" vertex="1">
          <mxGeometry x="510.5" y="707" width="157" height="30" as="geometry"/>
        </mxCell>
        <mxCell id="H_HTBfzigYBNuSM5Y4cz-73" style="edgeStyle=orthogonalEdgeStyle;rounded=0;orthogonalLoop=1;jettySize=auto;html=1;exitX=0.5;exitY=1;exitDx=0;exitDy=0;fontSize=16;entryX=0;entryY=0.5;entryDx=0;entryDy=0;" parent="1" source="H_HTBfzigYBNuSM5Y4cz-74" target="H_HTBfzigYBNuSM5Y4cz-82" edge="1">
          <mxGeometry relative="1" as="geometry">
            <mxPoint x="415.5" y="1087" as="targetPoint"/>
          </mxGeometry>
        </mxCell>
        <mxCell id="H_HTBfzigYBNuSM5Y4cz-74" value="+" style="ellipse;whiteSpace=wrap;html=1;aspect=fixed;fontSize=16;gradientColor=#d5739d;fillColor=#e6d0de;strokeColor=#996185;" parent="1" vertex="1">
          <mxGeometry x="184" y="885.5" width="50" height="50" as="geometry"/>
        </mxCell>
        <mxCell id="H_HTBfzigYBNuSM5Y4cz-75" value="内存块号" style="rounded=0;whiteSpace=wrap;html=1;fontSize=16;fillColor=#ffcc99;strokeColor=#36393d;" parent="1" vertex="1">
          <mxGeometry x="465" y="1079.5" width="90" height="30" as="geometry"/>
        </mxCell>
        <mxCell id="H_HTBfzigYBNuSM5Y4cz-76" value="&lt;b&gt;...&lt;/b&gt;" style="rounded=0;whiteSpace=wrap;html=1;fontSize=16;" parent="1" vertex="1">
          <mxGeometry x="465" y="1109.5" width="90" height="30" as="geometry"/>
        </mxCell>
        <mxCell id="H_HTBfzigYBNuSM5Y4cz-78" style="edgeStyle=orthogonalEdgeStyle;rounded=0;orthogonalLoop=1;jettySize=auto;html=1;fontSize=12;entryX=0;entryY=0.75;entryDx=0;entryDy=0;" parent="1" source="H_HTBfzigYBNuSM5Y4cz-79" target="H_HTBfzigYBNuSM5Y4cz-91" edge="1">
          <mxGeometry relative="1" as="geometry">
            <mxPoint x="735" y="1069.5" as="targetPoint"/>
          </mxGeometry>
        </mxCell>
        <mxCell id="H_HTBfzigYBNuSM5Y4cz-79" value="&lt;b&gt;400&lt;/b&gt;" style="rounded=0;whiteSpace=wrap;html=1;fontSize=16;fillColor=#ffe6cc;strokeColor=#000000;" parent="1" vertex="1">
          <mxGeometry x="465" y="1139.5" width="90" height="30" as="geometry"/>
        </mxCell>
        <mxCell id="H_HTBfzigYBNuSM5Y4cz-81" value="&lt;b&gt;...&lt;/b&gt;" style="rounded=0;whiteSpace=wrap;html=1;fontSize=16;" parent="1" vertex="1">
          <mxGeometry x="465" y="1169.5" width="90" height="30" as="geometry"/>
        </mxCell>
        <mxCell id="H_HTBfzigYBNuSM5Y4cz-82" value="2" style="text;html=1;strokeColor=none;fillColor=none;align=center;verticalAlign=middle;whiteSpace=wrap;rounded=0;fontSize=16;" parent="1" vertex="1">
          <mxGeometry x="415" y="1144.5" width="40" height="20" as="geometry"/>
        </mxCell>
        <mxCell id="H_HTBfzigYBNuSM5Y4cz-84" value="&lt;b&gt;...&lt;/b&gt;" style="text;html=1;fontSize=16;" parent="1" vertex="1">
          <mxGeometry x="430" y="1109.5" width="25" height="30" as="geometry"/>
        </mxCell>
        <mxCell id="H_HTBfzigYBNuSM5Y4cz-85" value="&lt;b&gt;...&lt;/b&gt;" style="text;html=1;fontSize=16;" parent="1" vertex="1">
          <mxGeometry x="432" y="1169.5" width="25" height="30" as="geometry"/>
        </mxCell>
        <mxCell id="H_HTBfzigYBNuSM5Y4cz-87" value="页号" style="text;html=1;strokeColor=none;fillColor=none;align=center;verticalAlign=middle;whiteSpace=wrap;rounded=0;fontSize=16;" parent="1" vertex="1">
          <mxGeometry x="415" y="1084.5" width="40" height="20" as="geometry"/>
        </mxCell>
        <mxCell id="H_HTBfzigYBNuSM5Y4cz-88" value="页表" style="text;html=1;strokeColor=none;fillColor=none;align=center;verticalAlign=middle;whiteSpace=wrap;rounded=0;fontSize=16;" parent="1" vertex="1">
          <mxGeometry x="465" y="1209.5" width="40" height="20" as="geometry"/>
        </mxCell>
        <mxCell id="H_HTBfzigYBNuSM5Y4cz-89" style="edgeStyle=orthogonalEdgeStyle;rounded=0;orthogonalLoop=1;jettySize=auto;html=1;entryX=0;entryY=0.5;entryDx=0;entryDy=0;dashed=1;fontSize=12;exitX=1;exitY=0.5;exitDx=0;exitDy=0;" parent="1" source="H_HTBfzigYBNuSM5Y4cz-90" target="H_HTBfzigYBNuSM5Y4cz-97" edge="1">
          <mxGeometry relative="1" as="geometry">
            <Array as="points">
              <mxPoint x="1018" y="1005"/>
              <mxPoint x="1018" y="922"/>
            </Array>
          </mxGeometry>
        </mxCell>
        <mxCell id="H_HTBfzigYBNuSM5Y4cz-90" value="页内偏移量W" style="rounded=0;whiteSpace=wrap;html=1;fillColor=#b0e3e6;strokeColor=#0e8088;" parent="1" vertex="1">
          <mxGeometry x="920.5" y="989.5" width="80" height="30" as="geometry"/>
        </mxCell>
        <mxCell id="H_HTBfzigYBNuSM5Y4cz-91" value="" style="rounded=0;whiteSpace=wrap;html=1;fillColor=#b0e3e6;strokeColor=#0e8088;" parent="1" vertex="1">
          <mxGeometry x="770.5" y="989.5" width="150" height="30" as="geometry"/>
        </mxCell>
        <mxCell id="H_HTBfzigYBNuSM5Y4cz-92" value="系统区" style="rounded=0;whiteSpace=wrap;html=1;fontSize=12;fillColor=#f8cecc;strokeColor=#b85450;" parent="1" vertex="1">
          <mxGeometry x="1143" y="729.5" width="120" height="60" as="geometry"/>
        </mxCell>
        <mxCell id="H_HTBfzigYBNuSM5Y4cz-93" value="" style="rounded=0;whiteSpace=wrap;html=1;fontSize=12;fillColor=#dae8fc;strokeColor=#6c8ebf;" parent="1" vertex="1">
          <mxGeometry x="1143" y="789.5" width="120" height="265" as="geometry"/>
        </mxCell>
        <mxCell id="H_HTBfzigYBNuSM5Y4cz-94" value="内存" style="text;html=1;strokeColor=none;fillColor=none;align=center;verticalAlign=middle;whiteSpace=wrap;rounded=0;fontSize=12;" parent="1" vertex="1">
          <mxGeometry x="1183" y="1054.5" width="40" height="20" as="geometry"/>
        </mxCell>
        <mxCell id="H_HTBfzigYBNuSM5Y4cz-95" value="页表" style="rounded=0;whiteSpace=wrap;html=1;fontSize=12;fillColor=#d5e8d4;strokeColor=#82b366;" parent="1" vertex="1">
          <mxGeometry x="1143" y="844.5" width="120" height="30" as="geometry"/>
        </mxCell>
        <mxCell id="H_HTBfzigYBNuSM5Y4cz-96" value="页表始址F" style="text;html=1;strokeColor=none;fillColor=none;align=center;verticalAlign=middle;whiteSpace=wrap;rounded=0;fontSize=12;fontStyle=1" parent="1" vertex="1">
          <mxGeometry x="1071.5" y="835" width="76" height="18" as="geometry"/>
        </mxCell>
        <mxCell id="H_HTBfzigYBNuSM5Y4cz-97" value="目标页面" style="rounded=0;whiteSpace=wrap;html=1;fontSize=12;fillColor=#d5e8d4;strokeColor=#82b366;" parent="1" vertex="1">
          <mxGeometry x="1143" y="907" width="120" height="30" as="geometry"/>
        </mxCell>
        <mxCell id="H_HTBfzigYBNuSM5Y4cz-98" value="1. 根据逻辑地址算出页号和页内偏移量" style="ellipse;shape=cloud;whiteSpace=wrap;html=1;fillColor=#33FFFF;gradientColor=none;fontSize=12;" parent="1" vertex="1">
          <mxGeometry x="744.5" y="686" width="317" height="61" as="geometry"/>
        </mxCell>
        <mxCell id="H_HTBfzigYBNuSM5Y4cz-99" value="2. 判断页号是否越界" style="ellipse;shape=cloud;whiteSpace=wrap;html=1;fillColor=#33FFFF;gradientColor=none;fontSize=12;" parent="1" vertex="1">
          <mxGeometry x="589" y="757" width="170" height="55" as="geometry"/>
        </mxCell>
        <mxCell id="H_HTBfzigYBNuSM5Y4cz-100" value="" style="ellipse;shape=cloud;whiteSpace=wrap;html=1;fillColor=#33FFFF;gradientColor=none;fontSize=12;" parent="1" vertex="1">
          <mxGeometry x="208" y="1040.5" width="221" height="108" as="geometry"/>
        </mxCell>
        <mxCell id="H_HTBfzigYBNuSM5Y4cz-101" value="3. 查询页表，找到页号&lt;br&gt;对应的页表项，确定页面&lt;br&gt;存放的内存块号" style="text;html=1;fontSize=12;" parent="1" vertex="1">
          <mxGeometry x="261" y="1064.5" width="129" height="67" as="geometry"/>
        </mxCell>
        <mxCell id="H_HTBfzigYBNuSM5Y4cz-102" value="4. 使用内存块号和页内偏移量得到物理地址" style="ellipse;shape=cloud;whiteSpace=wrap;html=1;fillColor=#33FFFF;gradientColor=none;fontSize=12;" parent="1" vertex="1">
          <mxGeometry x="668.5" y="1026.5" width="367" height="63" as="geometry"/>
        </mxCell>
        <mxCell id="H_HTBfzigYBNuSM5Y4cz-103" value="5. 访问目标内存单元" style="text;html=1;fontSize=12;" parent="1" vertex="1">
          <mxGeometry x="1018.3333333333335" y="922.1666666666667" width="129" height="28" as="geometry"/>
        </mxCell>
        <mxCell id="H_HTBfzigYBNuSM5Y4cz-104" value="内存块号" style="rounded=0;whiteSpace=wrap;html=1;fontSize=16;fillColor=#FF6666;strokeColor=#36393d;" parent="1" vertex="1">
          <mxGeometry x="460" y="865" width="90" height="30" as="geometry"/>
        </mxCell>
        <mxCell id="H_HTBfzigYBNuSM5Y4cz-106" value="&lt;b&gt;400&lt;/b&gt;" style="rounded=0;whiteSpace=wrap;html=1;fontSize=16;fillColor=#FF9999;strokeColor=#000000;" parent="1" vertex="1">
          <mxGeometry x="460" y="895" width="90" height="30" as="geometry"/>
        </mxCell>
        <mxCell id="H_HTBfzigYBNuSM5Y4cz-107" value="" style="rounded=0;whiteSpace=wrap;html=1;fontSize=16;" parent="1" vertex="1">
          <mxGeometry x="460" y="925" width="90" height="30" as="geometry"/>
        </mxCell>
        <mxCell id="H_HTBfzigYBNuSM5Y4cz-112" value="页表" style="text;html=1;strokeColor=none;fillColor=none;align=center;verticalAlign=middle;whiteSpace=wrap;rounded=0;fontSize=16;" parent="1" vertex="1">
          <mxGeometry x="475" y="1054.5" width="40" height="20" as="geometry"/>
        </mxCell>
        <mxCell id="H_HTBfzigYBNuSM5Y4cz-113" value="页号" style="rounded=0;whiteSpace=wrap;html=1;fontSize=16;fillColor=#FF6666;strokeColor=#36393d;" parent="1" vertex="1">
          <mxGeometry x="410" y="865" width="50" height="30" as="geometry"/>
        </mxCell>
        <mxCell id="H_HTBfzigYBNuSM5Y4cz-117" style="edgeStyle=orthogonalEdgeStyle;rounded=0;orthogonalLoop=1;jettySize=auto;html=1;entryX=0.956;entryY=0.539;entryDx=0;entryDy=0;entryPerimeter=0;fontSize=12;" parent="1" target="H_HTBfzigYBNuSM5Y4cz-116" edge="1">
          <mxGeometry relative="1" as="geometry">
            <mxPoint x="410" y="912" as="sourcePoint"/>
          </mxGeometry>
        </mxCell>
        <mxCell id="H_HTBfzigYBNuSM5Y4cz-114" value="&lt;b&gt;2&lt;/b&gt;" style="rounded=0;whiteSpace=wrap;html=1;fontSize=16;fillColor=#FF9999;strokeColor=#000000;" parent="1" vertex="1">
          <mxGeometry x="410" y="895.5" width="50" height="30" as="geometry"/>
        </mxCell>
        <mxCell id="H_HTBfzigYBNuSM5Y4cz-115" value="" style="rounded=0;whiteSpace=wrap;html=1;fontSize=16;" parent="1" vertex="1">
          <mxGeometry x="410" y="925" width="50" height="30" as="geometry"/>
        </mxCell>
        <mxCell id="H_HTBfzigYBNuSM5Y4cz-120" style="edgeStyle=orthogonalEdgeStyle;rounded=0;orthogonalLoop=1;jettySize=auto;html=1;fontSize=12;" parent="1" source="H_HTBfzigYBNuSM5Y4cz-116" target="H_HTBfzigYBNuSM5Y4cz-74" edge="1">
          <mxGeometry relative="1" as="geometry"/>
        </mxCell>
        <mxCell id="H_HTBfzigYBNuSM5Y4cz-121" style="edgeStyle=orthogonalEdgeStyle;rounded=0;orthogonalLoop=1;jettySize=auto;html=1;entryX=0;entryY=0.25;entryDx=0;entryDy=0;fontSize=12;" parent="1" source="H_HTBfzigYBNuSM5Y4cz-116" target="H_HTBfzigYBNuSM5Y4cz-91" edge="1">
          <mxGeometry relative="1" as="geometry">
            <Array as="points">
              <mxPoint x="319" y="997"/>
            </Array>
          </mxGeometry>
        </mxCell>
        <mxCell id="H_HTBfzigYBNuSM5Y4cz-116" value="是否命中" style="rhombus;whiteSpace=wrap;html=1;strokeColor=#000000;fillColor=#FF66FF;gradientColor=none;fontSize=12;" parent="1" vertex="1">
          <mxGeometry x="273.5" y="889.5" width="90" height="42" as="geometry"/>
        </mxCell>
        <mxCell id="H_HTBfzigYBNuSM5Y4cz-122" value="" style="ellipse;shape=cloud;whiteSpace=wrap;html=1;fillColor=#33FFFF;gradientColor=none;fontSize=12;" parent="1" vertex="1">
          <mxGeometry x="603.5" y="846.5" width="189" height="98" as="geometry"/>
        </mxCell>
        <mxCell id="H_HTBfzigYBNuSM5Y4cz-123" value="3. 查询快表，未命中&lt;br&gt;再去访问内存查询慢表" style="text;html=1;fontSize=12;" parent="1" vertex="1">
          <mxGeometry x="637" y="878" width="122" height="44" as="geometry"/>
        </mxCell>
        <mxCell id="H_HTBfzigYBNuSM5Y4cz-124" value="快表（存放在高速的存储器中）" style="text;html=1;strokeColor=none;fillColor=none;align=center;verticalAlign=middle;whiteSpace=wrap;rounded=0;fontSize=12;fontStyle=1" parent="1" vertex="1">
          <mxGeometry x="398" y="962" width="174" height="23" as="geometry"/>
        </mxCell>
        <mxCell id="B5_8zWfWfeMknRQ0NDLm-1" style="edgeStyle=orthogonalEdgeStyle;rounded=0;orthogonalLoop=1;jettySize=auto;html=1;entryX=0.5;entryY=0;entryDx=0;entryDy=0;fontSize=12;dashed=1;" edge="1" parent="1" source="B5_8zWfWfeMknRQ0NDLm-2" target="B5_8zWfWfeMknRQ0NDLm-33">
          <mxGeometry relative="1" as="geometry"/>
        </mxCell>
        <mxCell id="B5_8zWfWfeMknRQ0NDLm-2" value="段内偏移量W" style="rounded=0;whiteSpace=wrap;html=1;fillColor=#b0e3e6;strokeColor=#0e8088;" vertex="1" parent="1">
          <mxGeometry x="904.5" y="1351.5" width="80" height="30" as="geometry"/>
        </mxCell>
        <mxCell id="B5_8zWfWfeMknRQ0NDLm-3" value="" style="edgeStyle=orthogonalEdgeStyle;rounded=0;orthogonalLoop=1;jettySize=auto;html=1;fontSize=16;entryX=1;entryY=0.5;entryDx=0;entryDy=0;exitX=0.5;exitY=1;exitDx=0;exitDy=0;" edge="1" parent="1" source="B5_8zWfWfeMknRQ0NDLm-4" target="B5_8zWfWfeMknRQ0NDLm-9">
          <mxGeometry relative="1" as="geometry">
            <mxPoint x="939.5" y="1466.5" as="targetPoint"/>
          </mxGeometry>
        </mxCell>
        <mxCell id="B5_8zWfWfeMknRQ0NDLm-4" value="段号S" style="rounded=0;whiteSpace=wrap;html=1;fillColor=#b0e3e6;strokeColor=#0e8088;" vertex="1" parent="1">
          <mxGeometry x="754.5" y="1351.5" width="150" height="30" as="geometry"/>
        </mxCell>
        <mxCell id="B5_8zWfWfeMknRQ0NDLm-5" value="逻辑地址A" style="text;html=1;strokeColor=none;fillColor=none;align=center;verticalAlign=middle;whiteSpace=wrap;rounded=0;fontStyle=1" vertex="1" parent="1">
          <mxGeometry x="817" y="1331.5" width="70" height="20" as="geometry"/>
        </mxCell>
        <mxCell id="B5_8zWfWfeMknRQ0NDLm-6" style="edgeStyle=orthogonalEdgeStyle;rounded=0;orthogonalLoop=1;jettySize=auto;html=1;fontSize=16;entryX=0.5;entryY=1;entryDx=0;entryDy=0;" edge="1" parent="1" source="B5_8zWfWfeMknRQ0NDLm-9" target="B5_8zWfWfeMknRQ0NDLm-15">
          <mxGeometry relative="1" as="geometry">
            <mxPoint x="573" y="1316.5" as="targetPoint"/>
          </mxGeometry>
        </mxCell>
        <mxCell id="B5_8zWfWfeMknRQ0NDLm-7" style="edgeStyle=orthogonalEdgeStyle;rounded=0;orthogonalLoop=1;jettySize=auto;html=1;fontSize=16;entryX=1;entryY=0.5;entryDx=0;entryDy=0;exitX=0.5;exitY=1;exitDx=0;exitDy=0;" edge="1" parent="1" source="B5_8zWfWfeMknRQ0NDLm-9" target="B5_8zWfWfeMknRQ0NDLm-17">
          <mxGeometry relative="1" as="geometry">
            <mxPoint x="559.5" y="1526.5" as="targetPoint"/>
          </mxGeometry>
        </mxCell>
        <mxCell id="B5_8zWfWfeMknRQ0NDLm-8" value="没有越界" style="text;html=1;resizable=0;points=[];align=center;verticalAlign=middle;labelBackgroundColor=#ffffff;fontSize=12;" vertex="1" connectable="0" parent="B5_8zWfWfeMknRQ0NDLm-7">
          <mxGeometry x="-0.12" y="1" relative="1" as="geometry">
            <mxPoint as="offset"/>
          </mxGeometry>
        </mxCell>
        <mxCell id="B5_8zWfWfeMknRQ0NDLm-9" value="&lt;span style=&quot;color: rgb(51 , 51 , 51) ; font-family: &amp;#34;arial&amp;#34; ; font-size: 16px ; background-color: rgb(255 , 217 , 102)&quot;&gt;≤&lt;/span&gt;" style="rhombus;whiteSpace=wrap;html=1;fontSize=16;gradientColor=none;fillColor=#FFD966;strokeColor=#d79b00;" vertex="1" parent="1">
          <mxGeometry x="518" y="1391.5" width="110" height="40" as="geometry"/>
        </mxCell>
        <mxCell id="B5_8zWfWfeMknRQ0NDLm-10" style="edgeStyle=orthogonalEdgeStyle;rounded=0;orthogonalLoop=1;jettySize=auto;html=1;entryX=0;entryY=0.5;entryDx=0;entryDy=0;fontSize=16;" edge="1" parent="1" source="B5_8zWfWfeMknRQ0NDLm-11" target="B5_8zWfWfeMknRQ0NDLm-9">
          <mxGeometry relative="1" as="geometry"/>
        </mxCell>
        <mxCell id="B5_8zWfWfeMknRQ0NDLm-11" value="段表长度M" style="rounded=0;whiteSpace=wrap;html=1;fillColor=#b0e3e6;strokeColor=#0e8088;" vertex="1" parent="1">
          <mxGeometry x="329.5" y="1396.5" width="90" height="30" as="geometry"/>
        </mxCell>
        <mxCell id="B5_8zWfWfeMknRQ0NDLm-12" style="edgeStyle=orthogonalEdgeStyle;rounded=0;orthogonalLoop=1;jettySize=auto;html=1;exitX=0.5;exitY=1;exitDx=0;exitDy=0;fontSize=16;" edge="1" parent="1" source="B5_8zWfWfeMknRQ0NDLm-13" target="B5_8zWfWfeMknRQ0NDLm-17">
          <mxGeometry relative="1" as="geometry"/>
        </mxCell>
        <mxCell id="B5_8zWfWfeMknRQ0NDLm-13" value="段表起始地址F" style="rounded=0;whiteSpace=wrap;html=1;fillColor=#b0e3e6;strokeColor=#0e8088;" vertex="1" parent="1">
          <mxGeometry x="199.5" y="1396.5" width="130" height="30" as="geometry"/>
        </mxCell>
        <mxCell id="B5_8zWfWfeMknRQ0NDLm-14" value="段表寄存器" style="text;html=1;strokeColor=none;fillColor=none;align=center;verticalAlign=middle;whiteSpace=wrap;rounded=0;fontStyle=1" vertex="1" parent="1">
          <mxGeometry x="229.5" y="1371.5" width="70" height="20" as="geometry"/>
        </mxCell>
        <mxCell id="B5_8zWfWfeMknRQ0NDLm-15" value="越界中断（内中断）" style="rounded=1;whiteSpace=wrap;html=1;fontSize=12;gradientColor=none;fillColor=#f8cecc;strokeColor=#b85450;" vertex="1" parent="1">
          <mxGeometry x="494.5" y="1296.5" width="157" height="30" as="geometry"/>
        </mxCell>
        <mxCell id="B5_8zWfWfeMknRQ0NDLm-16" style="edgeStyle=orthogonalEdgeStyle;rounded=0;orthogonalLoop=1;jettySize=auto;html=1;exitX=0.5;exitY=1;exitDx=0;exitDy=0;fontSize=16;entryX=0;entryY=0.5;entryDx=0;entryDy=0;" edge="1" parent="1" source="B5_8zWfWfeMknRQ0NDLm-17" target="B5_8zWfWfeMknRQ0NDLm-25">
          <mxGeometry relative="1" as="geometry">
            <mxPoint x="399.5" y="1676.5" as="targetPoint"/>
          </mxGeometry>
        </mxCell>
        <mxCell id="B5_8zWfWfeMknRQ0NDLm-17" value="+" style="ellipse;whiteSpace=wrap;html=1;aspect=fixed;fontSize=16;gradientColor=#d5739d;fillColor=#e6d0de;strokeColor=#996185;" vertex="1" parent="1">
          <mxGeometry x="239.5" y="1466.5" width="50" height="50" as="geometry"/>
        </mxCell>
        <mxCell id="B5_8zWfWfeMknRQ0NDLm-18" value="段长C" style="rounded=0;whiteSpace=wrap;html=1;fontSize=16;fillColor=#ffcc99;strokeColor=#36393d;" vertex="1" parent="1">
          <mxGeometry x="450" y="1567" width="60" height="30" as="geometry"/>
        </mxCell>
        <mxCell id="B5_8zWfWfeMknRQ0NDLm-19" value="&lt;b&gt;...&lt;/b&gt;" style="rounded=0;whiteSpace=wrap;html=1;fontSize=16;" vertex="1" parent="1">
          <mxGeometry x="450" y="1597" width="60" height="30" as="geometry"/>
        </mxCell>
        <mxCell id="B5_8zWfWfeMknRQ0NDLm-20" value="&lt;b&gt;7k&lt;/b&gt;" style="rounded=0;whiteSpace=wrap;html=1;fontSize=16;" vertex="1" parent="1">
          <mxGeometry x="450" y="1627" width="60" height="30" as="geometry"/>
        </mxCell>
        <mxCell id="B5_8zWfWfeMknRQ0NDLm-21" style="edgeStyle=orthogonalEdgeStyle;rounded=0;orthogonalLoop=1;jettySize=auto;html=1;fontSize=12;entryX=0;entryY=0.5;entryDx=0;entryDy=0;" edge="1" parent="1" source="B5_8zWfWfeMknRQ0NDLm-22" target="B5_8zWfWfeMknRQ0NDLm-34">
          <mxGeometry relative="1" as="geometry">
            <mxPoint x="719.5" y="1586.5" as="targetPoint"/>
          </mxGeometry>
        </mxCell>
        <mxCell id="B5_8zWfWfeMknRQ0NDLm-22" value="&lt;b&gt;6k&lt;/b&gt;" style="rounded=0;whiteSpace=wrap;html=1;fontSize=16;fillColor=#ffe6cc;strokeColor=#d79b00;" vertex="1" parent="1">
          <mxGeometry x="450" y="1657" width="60" height="30" as="geometry"/>
        </mxCell>
        <mxCell id="B5_8zWfWfeMknRQ0NDLm-23" value="&lt;b&gt;...&lt;/b&gt;" style="rounded=0;whiteSpace=wrap;html=1;fontSize=16;" vertex="1" parent="1">
          <mxGeometry x="450" y="1687" width="60" height="30" as="geometry"/>
        </mxCell>
        <mxCell id="B5_8zWfWfeMknRQ0NDLm-24" value="&lt;b&gt;...&lt;/b&gt;" style="rounded=0;whiteSpace=wrap;html=1;fontSize=16;" vertex="1" parent="1">
          <mxGeometry x="450" y="1717" width="60" height="30" as="geometry"/>
        </mxCell>
        <mxCell id="B5_8zWfWfeMknRQ0NDLm-25" value="9" style="text;html=1;strokeColor=none;fillColor=none;align=center;verticalAlign=middle;whiteSpace=wrap;rounded=0;fontSize=16;" vertex="1" parent="1">
          <mxGeometry x="399.5" y="1661.5" width="40" height="20" as="geometry"/>
        </mxCell>
        <mxCell id="B5_8zWfWfeMknRQ0NDLm-26" value="&lt;b&gt;...&lt;/b&gt;" style="text;html=1;fontSize=16;" vertex="1" parent="1">
          <mxGeometry x="414.5" y="1626.5" width="25" height="30" as="geometry"/>
        </mxCell>
        <mxCell id="B5_8zWfWfeMknRQ0NDLm-27" value="&lt;b&gt;...&lt;/b&gt;" style="text;html=1;fontSize=16;" vertex="1" parent="1">
          <mxGeometry x="414.5" y="1596.5" width="25" height="30" as="geometry"/>
        </mxCell>
        <mxCell id="B5_8zWfWfeMknRQ0NDLm-28" value="&lt;b&gt;...&lt;/b&gt;" style="text;html=1;fontSize=16;" vertex="1" parent="1">
          <mxGeometry x="414.5" y="1716.5" width="25" height="30" as="geometry"/>
        </mxCell>
        <mxCell id="B5_8zWfWfeMknRQ0NDLm-29" value="&lt;b&gt;...&lt;/b&gt;" style="text;html=1;fontSize=16;" vertex="1" parent="1">
          <mxGeometry x="414.5" y="1686.5" width="25" height="30" as="geometry"/>
        </mxCell>
        <mxCell id="B5_8zWfWfeMknRQ0NDLm-30" value="段号" style="text;html=1;strokeColor=none;fillColor=none;align=center;verticalAlign=middle;whiteSpace=wrap;rounded=0;fontSize=16;fontStyle=0" vertex="1" parent="1">
          <mxGeometry x="399.5" y="1571.5" width="40" height="20" as="geometry"/>
        </mxCell>
        <mxCell id="B5_8zWfWfeMknRQ0NDLm-31" value="段表" style="text;html=1;strokeColor=none;fillColor=none;align=center;verticalAlign=middle;whiteSpace=wrap;rounded=0;fontSize=16;fontStyle=1" vertex="1" parent="1">
          <mxGeometry x="480" y="1537.5" width="40" height="20" as="geometry"/>
        </mxCell>
        <mxCell id="B5_8zWfWfeMknRQ0NDLm-32" style="edgeStyle=orthogonalEdgeStyle;rounded=0;orthogonalLoop=1;jettySize=auto;html=1;dashed=1;fontSize=12;entryX=0.003;entryY=0.46;entryDx=0;entryDy=0;entryPerimeter=0;" edge="1" parent="1" source="B5_8zWfWfeMknRQ0NDLm-33" target="B5_8zWfWfeMknRQ0NDLm-40">
          <mxGeometry relative="1" as="geometry">
            <Array as="points">
              <mxPoint x="1002" y="1587"/>
              <mxPoint x="1002" y="1511"/>
            </Array>
            <mxPoint x="1127" y="1511" as="targetPoint"/>
          </mxGeometry>
        </mxCell>
        <mxCell id="B5_8zWfWfeMknRQ0NDLm-33" value="段内偏移量W" style="rounded=0;whiteSpace=wrap;html=1;fillColor=#b0e3e6;strokeColor=#0e8088;" vertex="1" parent="1">
          <mxGeometry x="904.5" y="1571.5" width="80" height="30" as="geometry"/>
        </mxCell>
        <mxCell id="B5_8zWfWfeMknRQ0NDLm-34" value="&lt;b&gt;b&lt;/b&gt;" style="rounded=0;whiteSpace=wrap;html=1;fillColor=#b0e3e6;strokeColor=#0e8088;" vertex="1" parent="1">
          <mxGeometry x="754.5" y="1571.5" width="150" height="30" as="geometry"/>
        </mxCell>
        <mxCell id="B5_8zWfWfeMknRQ0NDLm-35" value="系统区" style="rounded=0;whiteSpace=wrap;html=1;fontSize=12;fillColor=#f8cecc;strokeColor=#b85450;" vertex="1" parent="1">
          <mxGeometry x="1127" y="1319" width="120" height="60" as="geometry"/>
        </mxCell>
        <mxCell id="B5_8zWfWfeMknRQ0NDLm-36" value="" style="rounded=0;whiteSpace=wrap;html=1;fontSize=12;fillColor=#dae8fc;strokeColor=#6c8ebf;" vertex="1" parent="1">
          <mxGeometry x="1127" y="1379" width="120" height="265" as="geometry"/>
        </mxCell>
        <mxCell id="B5_8zWfWfeMknRQ0NDLm-37" value="内存" style="text;html=1;strokeColor=none;fillColor=none;align=center;verticalAlign=middle;whiteSpace=wrap;rounded=0;fontSize=12;" vertex="1" parent="1">
          <mxGeometry x="1167" y="1644" width="40" height="20" as="geometry"/>
        </mxCell>
        <mxCell id="B5_8zWfWfeMknRQ0NDLm-38" value="段表" style="rounded=0;whiteSpace=wrap;html=1;fontSize=12;fillColor=#d5e8d4;strokeColor=#82b366;" vertex="1" parent="1">
          <mxGeometry x="1127" y="1434" width="120" height="30" as="geometry"/>
        </mxCell>
        <mxCell id="B5_8zWfWfeMknRQ0NDLm-39" value="段表始址F" style="text;html=1;strokeColor=none;fillColor=none;align=center;verticalAlign=middle;whiteSpace=wrap;rounded=0;fontSize=12;fontStyle=1" vertex="1" parent="1">
          <mxGeometry x="1055.5" y="1424.5" width="76" height="18" as="geometry"/>
        </mxCell>
        <mxCell id="B5_8zWfWfeMknRQ0NDLm-40" value="" style="rounded=0;whiteSpace=wrap;html=1;fontSize=12;fillColor=#d5e8d4;strokeColor=#82b366;" vertex="1" parent="1">
          <mxGeometry x="1127" y="1485" width="120" height="57" as="geometry"/>
        </mxCell>
        <mxCell id="B5_8zWfWfeMknRQ0NDLm-41" value="1. 根据逻辑地址算出段号和段内偏移量（段内地址）" style="ellipse;shape=cloud;whiteSpace=wrap;html=1;fillColor=#33FFFF;gradientColor=none;fontSize=12;" vertex="1" parent="1">
          <mxGeometry x="717" y="1266.5" width="410" height="60" as="geometry"/>
        </mxCell>
        <mxCell id="B5_8zWfWfeMknRQ0NDLm-42" value="2. 判断段号是否越界" style="ellipse;shape=cloud;whiteSpace=wrap;html=1;fillColor=#33FFFF;gradientColor=none;fontSize=12;" vertex="1" parent="1">
          <mxGeometry x="566" y="1349" width="171" height="53" as="geometry"/>
        </mxCell>
        <mxCell id="B5_8zWfWfeMknRQ0NDLm-43" value="&lt;span style=&quot;text-align: left&quot;&gt;3. 查询段表，找到对应的&lt;br&gt;段&lt;/span&gt;&lt;span style=&quot;text-align: left&quot;&gt;表项，段表项的存放地址&lt;br&gt;为F + S*段表长度M&lt;/span&gt;" style="ellipse;shape=cloud;whiteSpace=wrap;html=1;fillColor=#33FFFF;gradientColor=none;fontSize=12;" vertex="1" parent="1">
          <mxGeometry x="207" y="1668" width="222" height="127" as="geometry"/>
        </mxCell>
        <mxCell id="B5_8zWfWfeMknRQ0NDLm-45" value="5. 使用基址b和段内偏移量得到物理地址" style="ellipse;shape=cloud;whiteSpace=wrap;html=1;fillColor=#33FFFF;gradientColor=none;fontSize=12;" vertex="1" parent="1">
          <mxGeometry x="651.5" y="1608.5" width="367" height="63" as="geometry"/>
        </mxCell>
        <mxCell id="B5_8zWfWfeMknRQ0NDLm-46" value="6. 访问目标内存单元" style="text;html=1;fontSize=12;" vertex="1" parent="1">
          <mxGeometry x="1004" y="1513.5" width="112" height="24" as="geometry"/>
        </mxCell>
        <mxCell id="B5_8zWfWfeMknRQ0NDLm-47" value="基址b" style="rounded=0;whiteSpace=wrap;html=1;fontSize=16;fillColor=#ffcc99;strokeColor=#36393d;" vertex="1" parent="1">
          <mxGeometry x="510.5" y="1567" width="60" height="30" as="geometry"/>
        </mxCell>
        <mxCell id="B5_8zWfWfeMknRQ0NDLm-48" value="&lt;b&gt;...&lt;/b&gt;" style="rounded=0;whiteSpace=wrap;html=1;fontSize=16;" vertex="1" parent="1">
          <mxGeometry x="510.5" y="1597" width="60" height="30" as="geometry"/>
        </mxCell>
        <mxCell id="B5_8zWfWfeMknRQ0NDLm-49" value="&lt;b&gt;80k&lt;/b&gt;" style="rounded=0;whiteSpace=wrap;html=1;fontSize=16;" vertex="1" parent="1">
          <mxGeometry x="510.5" y="1627" width="60" height="30" as="geometry"/>
        </mxCell>
        <mxCell id="B5_8zWfWfeMknRQ0NDLm-50" value="&lt;b&gt;40k&lt;/b&gt;" style="rounded=0;whiteSpace=wrap;html=1;fontSize=16;fillColor=#ffe6cc;strokeColor=#d79b00;" vertex="1" parent="1">
          <mxGeometry x="510.5" y="1657" width="60" height="30" as="geometry"/>
        </mxCell>
        <mxCell id="B5_8zWfWfeMknRQ0NDLm-51" value="&lt;b&gt;...&lt;/b&gt;" style="rounded=0;whiteSpace=wrap;html=1;fontSize=16;" vertex="1" parent="1">
          <mxGeometry x="510.5" y="1687" width="60" height="30" as="geometry"/>
        </mxCell>
        <mxCell id="B5_8zWfWfeMknRQ0NDLm-52" value="&lt;b&gt;...&lt;/b&gt;" style="rounded=0;whiteSpace=wrap;html=1;fontSize=16;" vertex="1" parent="1">
          <mxGeometry x="510.5" y="1717" width="60" height="30" as="geometry"/>
        </mxCell>
        <mxCell id="B5_8zWfWfeMknRQ0NDLm-53" value="（9, 1024）" style="text;html=1;strokeColor=none;fillColor=none;align=center;verticalAlign=middle;whiteSpace=wrap;rounded=0;fontSize=16;" vertex="1" parent="1">
          <mxGeometry x="860" y="1379" width="100" height="28" as="geometry"/>
        </mxCell>
        <mxCell id="B5_8zWfWfeMknRQ0NDLm-55" value="PCB" style="rounded=0;whiteSpace=wrap;html=1;fillColor=#B0E3E6;" vertex="1" parent="1">
          <mxGeometry x="1132" y="1326" width="35" height="23" as="geometry"/>
        </mxCell>
        <mxCell id="B5_8zWfWfeMknRQ0NDLm-58" value="&lt;span style=&quot;background-color: rgb(255 , 102 , 102)&quot;&gt;4. 检查段内地址（段内偏移量）&lt;br&gt;是否超过段长。若W&lt;span style=&quot;color: rgb(51 , 51 , 51) ; font-family: &amp;#34;arial&amp;#34; ; font-size: 13px&quot;&gt;≥C，则产生越界中断&lt;/span&gt;&lt;/span&gt;" style="ellipse;shape=cloud;whiteSpace=wrap;html=1;fillColor=#FF6666;gradientColor=none;fontSize=12;" vertex="1" parent="1">
          <mxGeometry x="555" y="1686.5" width="367" height="63" as="geometry"/>
        </mxCell>
        <mxCell id="B5_8zWfWfeMknRQ0NDLm-61" value="目标内存单元" style="rounded=0;whiteSpace=wrap;html=1;fontSize=12;fillColor=#FF66FF;strokeColor=#FFCCFF;" vertex="1" parent="1">
          <mxGeometry x="1127" y="1507" width="120" height="15" as="geometry"/>
        </mxCell>
        <mxCell id="B5_8zWfWfeMknRQ0NDLm-62" value="对应段" style="text;html=1;fontSize=12;" vertex="1" parent="1">
          <mxGeometry x="1132" y="1479.5" width="112" height="24" as="geometry"/>
        </mxCell>
      </root>
    </mxGraphModel>
  </diagram>
</mxfile>
